<?xml version="1.0" encoding="UTF-8" standalone="no"?>
<!-- Created with Inkscape (http://www.inkscape.org/) -->

<svg
   xmlns:dc="http://purl.org/dc/elements/1.1/"
   xmlns:cc="http://creativecommons.org/ns#"
   xmlns:rdf="http://www.w3.org/1999/02/22-rdf-syntax-ns#"
   xmlns:svg="http://www.w3.org/2000/svg"
   xmlns="http://www.w3.org/2000/svg"
   xmlns:sodipodi="http://sodipodi.sourceforge.net/DTD/sodipodi-0.dtd"
   xmlns:inkscape="http://www.inkscape.org/namespaces/inkscape"
   width="750"
   height="800"
   id="svg4247"
   version="1.1"
   inkscape:version="0.91 r13725"
   sodipodi:docname="poalab_logo_quadrado_colorido.svg">
  <sodipodi:namedview
     id="base"
     pagecolor="#ffffff"
     bordercolor="#666666"
     borderopacity="1.0"
     inkscape:pageopacity="0.0"
     inkscape:pageshadow="2"
     inkscape:zoom="0.71834951"
     inkscape:cx="60.159281"
     inkscape:cy="428.76174"
     inkscape:document-units="px"
     inkscape:current-layer="layer1"
     showgrid="false"
     inkscape:window-width="1920"
     inkscape:window-height="1056"
     inkscape:window-x="0"
     inkscape:window-y="24"
     inkscape:window-maximized="1" />
  <defs
     id="defs4249" />
  <metadata
     id="metadata4252">
    <rdf:RDF>
      <cc:Work
         rdf:about="">
        <dc:format>image/svg+xml</dc:format>
        <dc:type
           rdf:resource="http://purl.org/dc/dcmitype/StillImage" />
        <dc:title />
      </cc:Work>
    </rdf:RDF>
  </metadata>
  <g
     inkscape:label="Camada 1"
     inkscape:groupmode="layer"
     id="layer1"
     transform="translate(0,-252.36217)">
    <g
       id="g4146"
       transform="translate(-5.211787,0)">
      <path
         sodipodi:nodetypes="csscccssssssssssssccssccsssccsccssssscc"
         style="fill:#cb2026;fill-opacity:1"
         d="m 365.38154,504.83418 c -12.44832,-1.24951 -23.50355,-4.24481 -33.50735,-9.07853 -13.46436,-6.50578 -22.38945,-14.72332 -27.41315,-25.24002 -2.63692,-5.52017 -3.12746,-7.78181 -3.15787,-14.56039 -0.0198,-4.57366 0.10295,-6.23746 0.60867,-8.21274 0.62088,-2.42452 0.62088,-2.49034 0,-3.10114 -1.04006,-1.02301 -30.40602,-17.87037 -31.14922,-17.87037 -0.3763,0 -11.60366,6.30075 -24.94945,14.0017 -13.34578,7.70095 -24.45095,14.00171 -24.67818,14.00171 -0.68687,0 -18.20672,-10.2199 -18.20672,-10.62056 0,-0.56508 6.03873,-9.51053 9.78028,-14.48789 9.93734,-13.21973 22.12876,-26.01681 34.32475,-36.03 24.32061,-19.96782 52.35294,-34.17617 82.06332,-41.59433 18.77388,-4.6875 35.33298,-6.52319 55.34745,-6.1356 20.12642,0.3897 36.34764,2.87779 55.61016,8.52953 38.87449,11.40609 75.6662,35.85475 101.50255,67.45008 6.2432,7.63485 15.96842,21.23725 15.96842,22.33468 0,0.18498 -2.31536,1.67369 -5.1452,3.30798 -2.82988,1.63428 -6.80955,3.94479 -8.84376,5.13439 -2.23996,1.30998 -3.9697,2.11014 -4.38607,2.02898 -0.60866,-0.11874 -18.02949,-10.12563 -90.77068,-52.14083 -10.76275,-6.21655 -29.43727,-17.0004 -41.499,-23.96413 -12.06168,-6.96374 -22.95842,-13.25767 -24.21496,-13.98651 -1.25652,-0.72882 -2.50847,-1.23926 -2.7821,-1.13422 -0.27374,0.10492 -10.86022,6.17169 -23.52575,13.48154 -12.66549,7.30986 -24.81214,14.31154 -26.99252,15.55923 -2.1804,1.2477 -3.96434,2.4651 -3.96434,2.70535 0,0.34199 16.27676,9.85329 22.67518,13.25014 l 1.25089,0.66412 3.80994,-0.78994 c 8.157,-1.69121 11.2396,-1.9582 22.53511,-1.9519 9.15222,0.004 11.26073,0.10532 15.18677,0.72151 12.5778,1.97426 22.95531,5.33632 32.1014,10.40003 6.56298,3.63359 10.46917,6.62562 15.46637,11.84668 18.61714,19.45118 14.16138,45.16844 -10.66034,61.52823 -8.11132,5.34608 -18.37567,9.57019 -28.6456,11.78853 -8.43578,1.82216 -11.29488,2.10757 -22.09906,2.20622 -5.6597,0.0517 -10.89768,0.0315 -11.63994,-0.0414 z"
         id="path5483-1-2"
         inkscape:connector-curvature="0" />
      <path
         sodipodi:nodetypes="cssscsscscccccssccccsccssssscccssccsccc"
         style="fill:#0e9a48;fill-opacity:1"
         d="m 368.58672,763.93664 c -35.57248,-2.4924 -64.85923,-11.3262 -94.13179,-28.3931 -18.21598,-10.6206 -33.68706,-23.2411 -49.86224,-40.6748 -10.91322,-11.7624 -23.52023,-30.10323 -30.75701,-44.74557 -1.1464,-2.31959 -2.36577,-4.74879 -2.70969,-5.39824 -1.37861,-2.60344 -5.46695,-12.37334 -7.35794,-17.58318 -7.54971,-20.80037 -11.3524,-40.01539 -12.57843,-63.55909 -0.46394,-8.90852 -0.004,-22.58658 1.03532,-30.87118 0.17474,-1.39175 0.48552,-3.89689 0.69052,-5.56694 1.62359,-13.22741 6.11663,-31.07897 11.40789,-45.32519 6.67402,-14.44263 6.2425,-27.793 20.21553,-19.68579 l 8.67975,5.04719 0.16883,92.22652 0.16882,92.22653 2.69911,1.54869 c 10.68347,6.12997 30.26824,17.43361 31.37725,18.10983 2.4072,1.4678 14.8221,8.58702 15.62846,8.96199 0.61106,0.28399 0.85104,0.25717 1.09137,-0.12268 0.17592,-0.27848 0.31043,-8.48438 0.31319,-19.15381 l 0.004,-18.6669 -2.83764,-3.77799 C 250.6428,623.6358 243.66778,607.104 241.17021,589.56159 c -2.34012,-20.96418 2.97184,-43.53112 21.28927,-52.33021 8.97003,-4.24912 19.24099,-4.46776 30.71949,-0.6539 19.25206,6.39669 38.12432,24.19093 49.57422,46.74241 10.87469,21.41856 13.90238,44.54336 8.13877,62.16225 -1.08211,3.30798 -3.88552,8.91613 -5.7974,11.5977 -3.07736,4.31613 -7.59982,8.20744 -12.51999,10.77276 l -2.62008,1.36608 0,24.77136 0,24.7712 4.89218,2.8372 c 2.69068,1.5604 6.63812,3.8579 8.77212,5.1055 3.13761,1.8344 21.86579,12.6242 27.91903,16.0848 l 1.43392,0.8198 0,10.0714 c 0,11.0071 0.0852,10.5564 -1.96759,10.422 -0.49515,-0.032 -1.58345,-0.1069 -2.41852,-0.1653 z"
         id="path5483-1-7"
         inkscape:connector-curvature="0" />
      <path
         sodipodi:nodetypes="cccsssscscccssssssccsssscssssscsssscc"
         style="fill:#35469d;fill-opacity:1"
         d="m 387.64568,764.10434 c -0.0962,-0.2513 -0.1349,-5.0801 -0.0856,-10.7309 l 0.0895,-10.2743 4.0487,-2.3424 c 2.22677,-1.2884 5.94651,-3.4359 8.26605,-4.7723 11.25758,-6.4862 125.01619,-72.16093 129.72649,-74.89334 2.96903,-1.72228 7.90337,-4.57554 10.96517,-6.34055 l 5.56694,-3.20917 0.086,-31.4774 c 0.0474,-17.31259 -0.0276,-31.59249 -0.16961,-31.73315 -0.23824,-0.23824 -25.90415,14.39133 -27.12589,15.46183 -0.30569,0.26783 -0.72802,1.17157 -0.93873,2.00846 -1.29013,5.12346 -7.20197,17.81089 -11.47933,24.63571 -7.64021,12.19042 -18.23208,23.30352 -28.91761,30.34045 -16.59884,10.93122 -34.23662,13.55339 -47.49477,7.06096 -18.94826,-9.27882 -26.34631,-34.52058 -18.72855,-63.90098 7.12316,-27.47295 26.55439,-52.96377 49.07132,-64.37434 4.95977,-2.51338 9.24086,-4.11486 14.33913,-5.36393 3.53956,-0.86721 4.41278,-0.94961 9.95301,-0.939 5.45449,0.0119 6.40651,0.10098 9.34765,0.88915 6.04272,1.61922 11.00979,4.40558 15.409,8.64389 1.17846,1.13536 2.29422,2.06431 2.47939,2.06431 0.1854,0 5.36796,-2.85958 11.51725,-6.35468 6.14921,-3.4951 13.7994,-7.83423 17.00039,-9.64254 l 5.81998,-3.28786 0,-28.9645 c 0,-24.17594 0.077,-29.04149 0.46556,-29.43008 0.5788,-0.57881 17.57399,-10.37912 17.99888,-10.37912 0.35658,0 6.44544,12.37836 8.54667,17.37558 8.2706,19.66926 13.3717,40.11561 15.57241,62.41717 0.59382,6.01783 0.58325,30.81861 -0.0158,37.1129 -1.99359,20.94559 -6.70451,40.6065 -14.24795,59.4636 -2.87039,7.17539 -9.65292,21.03972 -13.49379,27.58297 -16.10367,27.43411 -38.84697,51.48066 -65.26574,69.00566 -29.2907,19.4301 -62.75715,31.0947 -97.67446,34.0441 -8.71912,0.7365 -10.44641,0.7859 -10.63141,0.3037 z"
         id="path5483-1-8"
         inkscape:connector-curvature="0" />
    </g>
    <g
       id="g4151"
       transform="translate(3.314634,0)">
      <path
         inkscape:connector-curvature="0"
         id="path4012-9-4"
         d="m 123.26087,836.11224 c -4.54183,0.045 -12.89109,-1.566 -13.61759,5.0155 0.27469,23.6332 -0.70767,47.4446 0.46656,71.0914 1.46648,6.5504 12.72057,5.3225 12.3054,-1.5746 0.54331,-5.6019 0.15717,-11.2383 0.17496,-16.8543 16.58069,-0.7907 34.9636,2.9448 49.97978,-5.832 11.75901,-8.6539 12.14036,-26.7058 5.65699,-38.7533 -7.59364,-11.7475 -23.45075,-12.9991 -36.27452,-13.0317 -6.22997,-0.1213 -12.46086,-0.1081 -18.69158,-0.061 z m 15.10474,11.8097 c 9.60892,0.7391 22.40758,-1.2891 28.69318,7.8148 3.26133,6.8998 3.76559,16.8301 -2.12866,22.453 -9.65664,6.1531 -21.92794,3.1994 -32.83386,4.1116 -6.51215,0.8746 -11.80436,0.5292 -9.44775,-7.465 0,-8.9714 0,-17.9429 0,-26.9144 5.23903,0 10.47807,0 15.71709,0 z"
         style="font-style:normal;font-weight:normal;font-size:144px;line-height:125%;font-family:Gruppo;-inkscape-font-specification:Gruppo;letter-spacing:0px;word-spacing:0px;fill:#000000;fill-opacity:1;stroke:none" />
      <path
         inkscape:connector-curvature="0"
         id="path4010-7-9"
         d="m 233.89291,834.77094 c -16.60987,0.1157 -36.31789,4.6635 -44.38112,20.7617 -7.05628,15.6591 -6.40228,36.347 5.48202,49.4549 13.98805,13.6699 35.49394,13.9032 53.88208,12.4994 15.76895,-1.0933 33.05947,-9.0852 37.70861,-25.3297 4.88148,-15.443 3.07077,-34.989 -9.53519,-46.2473 -11.75327,-9.985 -28.28839,-11.3196 -43.1564,-11.139 z m 1.86622,11.7513 c 12.71663,0.086 28.53764,0.7642 36.21639,12.6262 5.76439,11.6822 5.8591,27.1812 -2.36194,37.6452 -10.84953,10.8372 -27.85686,9.5528 -42.13581,9.0979 -11.19538,-0.6079 -24.96965,-5.4906 -27.64344,-17.8166 -3.7533,-12.7155 -2.17914,-29.9577 10.84743,-36.858 7.76244,-3.9565 16.544,-4.3757 25.07737,-4.6947 z"
         style="font-style:normal;font-weight:normal;font-size:144px;line-height:125%;font-family:Gruppo;-inkscape-font-specification:Gruppo;letter-spacing:0px;word-spacing:0px;fill:#000000;fill-opacity:1;stroke:none" />
      <path
         inkscape:connector-curvature="0"
         id="path4014-0-7"
         d="m 335.42709,836.11224 c -7.0476,1.7788 -7.56697,10.2319 -11.50507,15.1116 -10.51878,19.8633 -22.76829,39.0184 -32.05956,59.3916 -0.90708,6.4772 9.1861,9.3149 11.88578,3.3324 4.2005,-6.2989 7.27389,-13.1813 11.06288,-19.7202 14.15325,0.2766 28.90891,-0.5503 42.68985,0.4082 4.7876,7.2854 6.99003,16.8855 14.11331,22.2781 5.5521,2.5463 11.20974,-5.0379 7.39565,-9.7413 -12.96157,-23.1551 -25.09874,-46.9567 -39.0048,-69.4566 -1.22947,-1.1283 -2.90226,-1.7991 -4.57804,-1.6038 z m 15.74626,46.7722 c -10.10868,0 -20.21745,0 -30.32612,0 5.05438,-9.2242 10.10867,-18.4484 15.16306,-27.6726 5.05438,9.2242 10.10868,18.4484 15.16306,27.6726 z"
         style="font-style:normal;font-weight:normal;font-size:144px;line-height:125%;font-family:Gruppo;-inkscape-font-specification:Gruppo;letter-spacing:0px;word-spacing:0px;fill:#000000;fill-opacity:1;stroke:none" />
      <path
         inkscape:connector-curvature="0"
         id="path3924-5-1"
         style="font-style:normal;font-weight:normal;font-size:144px;line-height:125%;font-family:Gruppo;-inkscape-font-specification:Gruppo;letter-spacing:0px;word-spacing:0px;fill:#000000;fill-opacity:1;stroke:none"
         d="m 399.69347,914.28004 c -0.65617,0 -1.18104,-0.022 -1.57463,-0.066 -0.35001,-0.044 -0.6124,-0.1312 -0.78736,-0.2624 -0.17496,-0.175 -0.28432,-0.4155 -0.32808,-0.7217 0,-0.3499 0,-0.8092 0,-1.3778 l 0,-66.3967 c 0,-1.1372 0.19688,-2.1214 0.59056,-2.9525 0.39359,-0.8747 1.22462,-1.3121 2.49309,-1.3122 1.04975,10e-5 1.72775,0.4594 2.0339,1.3778 0.30616,0.8749 0.45928,1.8372 0.45928,2.8869 l 0,64.494 56.35844,0 c 0.87479,0 1.53086,0.2406 1.9683,0.7217 0.48112,0.4374 0.72167,0.9186 0.72177,1.4434 -10e-5,0.5686 -0.24065,1.0716 -0.72177,1.509 -0.43744,0.4374 -1.09351,0.6561 -1.9683,0.6561 l -59.2452,0" />
      <path
         inkscape:connector-curvature="0"
         id="path3926-2-9"
         style="font-style:normal;font-weight:normal;font-size:144px;line-height:125%;font-family:Gruppo;-inkscape-font-specification:Gruppo;letter-spacing:0px;word-spacing:0px;fill:#000000;fill-opacity:1;stroke:none"
         d="m 502.37211,844.53724 c 0.69984,-1.2684 1.24655,-2.1432 1.64023,-2.6244 0.39368,-0.481 0.98415,-0.7216 1.77151,-0.7217 0.61231,10e-5 1.13718,0.2407 1.57462,0.7217 0.48102,0.4375 1.09342,1.3123 1.83702,2.6244 l 36.21639,65.347 c 0.48102,0.8748 0.72157,1.7277 0.72167,2.5588 -10e-5,0.7873 -0.21882,1.3996 -0.65607,1.837 -0.43745,0.4374 -0.96232,0.6561 -1.57463,0.6561 -0.6124,0 -1.2248,-0.2187 -1.83711,-0.6561 -0.56864,-0.3936 -1.15911,-1.1372 -1.77142,-2.2307 l -11.15357,-20.2077 -46.71389,0 -11.28477,20.4702 c -0.48121,0.9185 -1.04975,1.5746 -1.70592,1.9682 -0.6123,0.4374 -1.22471,0.6561 -1.83701,0.6561 -0.7436,0 -1.29031,-0.2624 -1.64023,-0.7873 -0.34991,-0.5249 -0.52487,-1.2247 -0.52487,-2.0995 0,-0.3499 0.0653,-0.6998 0.19679,-1.0497 0.17496,-0.3499 0.37185,-0.7436 0.59047,-1.181 l 36.15079,-65.2814 m 24.86602,43.4335 -21.45428,-39.1689 -21.45429,39.1689 42.90857,0" />
      <path
         inkscape:connector-curvature="0"
         id="path3928-5-1"
         style="font-style:normal;font-weight:normal;font-size:144px;line-height:125%;font-family:Gruppo;-inkscape-font-specification:Gruppo;letter-spacing:0px;word-spacing:0px;fill:#000000;fill-opacity:1;stroke:none"
         d="m 633.8533,892.89144 c 0,4.4614 -0.85296,8.0918 -2.55869,10.8911 -1.706,2.7556 -4.06789,4.9207 -7.08586,6.4954 -2.97438,1.5308 -6.49539,2.5806 -10.5631,3.1492 -4.0678,0.5686 -8.44176,0.8529 -13.12188,0.8529 l -37.79101,0 c -0.7436,0 -1.31224,-0.2187 -1.70582,-0.6561 -0.34992,-0.4374 -0.52488,-0.9841 -0.52488,-1.6402 l 0,-68.365 c 0,-0.7873 0.24056,-1.3777 0.72167,-1.7715 0.48111,-0.4373 1.09351,-0.656 1.83711,-0.6561 l 30.04908,0 c 3.14916,10e-5 6.25474,0.044 9.31656,0.1313 3.06163,0.044 5.94849,0.2625 8.66039,0.656 2.75557,0.35 5.27059,0.8968 7.54505,1.6403 2.31813,0.7436 4.30836,1.7934 5.97051,3.1492 1.70573,1.356 3.01797,3.0619 3.93652,5.1176 0.96222,2.0558 1.44334,4.5708 1.44343,7.5451 -9e-5,2.5369 -0.35001,4.6801 -1.04975,6.4297 -0.69993,1.7496 -1.59655,3.2149 -2.68997,4.3958 -1.04985,1.181 -2.23079,2.1214 -3.54293,2.8212 -1.31224,0.6561 -2.58071,1.1591 -3.80533,1.509 -1.2248,0.3062 -2.34015,0.5031 -3.34604,0.5905 -1.00608,0.088 -1.74968,0.1313 -2.23079,0.1312 l -0.45928,0 c 2.66805,0.2625 5.24875,0.7218 7.74193,1.3778 2.49309,0.6562 4.70195,1.6622 6.62659,3.0181 1.96821,1.3122 3.54284,3.0399 4.72388,5.1831 1.22461,2.1433 1.85885,4.8114 1.90261,8.0044 m -9.44775,-33.4608 c 0,-2.2307 -0.37185,-4.199 -1.11535,-5.9049 -0.7436,-1.7495 -2.16519,-3.2148 -4.2646,-4.3958 -2.0996,-1.1809 -5.03012,-2.0776 -8.79168,-2.69 -3.76166,-0.6123 -8.66049,-0.9185 -14.69651,-0.9185 l -29.45861,0 0,28.1464 31.03324,0 c 4.72387,0 8.79168,-0.1749 12.20341,-0.5249 3.45532,-0.3936 6.29841,-1.1153 8.5292,-2.1651 2.23061,-1.0497 3.87092,-2.4931 4.92067,-4.3302 1.09342,-1.837 1.64023,-4.2427 1.64023,-7.217 m 3.87101,33.4608 c -9e-5,-3.018 -0.74369,-5.5331 -2.2307,-7.5451 -1.44352,-2.012 -3.52119,-3.6085 -6.2329,-4.7895 -2.66823,-1.1809 -5.92685,-2.012 -9.77584,-2.4931 -3.84917,-0.5249 -8.15744,-0.7874 -12.92508,-0.7874 l -31.03324,0 0,32.6735 36.93815,0 c 5.90473,0 10.54118,-0.4811 13.90915,-1.4434 3.41164,-0.9623 5.94849,-2.2307 7.61074,-3.8053 1.66196,-1.5747 2.68988,-3.3898 3.08365,-5.4456 0.43725,-2.0558 0.65598,-4.1771 0.65607,-6.3641" />
    </g>
    <g
       style="font-style:normal;font-weight:normal;font-size:55.65834427px;line-height:125%;font-family:sans-serif;letter-spacing:0px;word-spacing:0px;fill:#000000;fill-opacity:1;stroke:none;stroke-width:1px;stroke-linecap:butt;stroke-linejoin:miter;stroke-opacity:1"
       id="text4142">
      <path
         d="m 114.80812,940.90401 5.00055,0 6.25069,23.75263 6.22352,-23.75263 5.89739,0 6.2507,23.75263 6.22351,-23.75263 5.00056,0 -7.96284,30.43815 -5.8974,0 -6.54963,-24.94841 -6.57682,24.94841 -5.89739,0 -7.96284,-30.43815 z"
         style=""
         id="path4160" />
      <path
         d="m 160.35664,940.90401 5.00056,0 6.25069,23.75263 6.22352,-23.75263 5.89739,0 6.25069,23.75263 6.22352,-23.75263 5.00055,0 -7.96284,30.43815 -5.89739,0 -6.54964,-24.94841 -6.57681,24.94841 -5.8974,0 -7.96284,-30.43815 z"
         style=""
         id="path4162" />
      <path
         d="m 205.90517,940.90401 5.00056,0 6.25069,23.75263 6.22351,-23.75263 5.8974,0 6.25069,23.75263 6.22352,-23.75263 5.00055,0 -7.96284,30.43815 -5.89739,0 -6.54964,-24.94841 -6.57682,24.94841 -5.89739,0 -7.96284,-30.43815 z"
         style=""
         id="path4164" />
      <path
         d="m 249.95896,964.43922 5.73434,0 0,6.90294 -5.73434,0 0,-6.90294 z"
         style=""
         id="path4166" />
      <path
         d="m 271.80922,966.77644 0,16.14309 -5.02773,0 0,-42.01552 5.02773,0 0,4.62007 q 1.57626,-2.71769 3.96783,-4.02218 2.41874,-1.33167 5.76151,-1.33167 5.54409,0 8.99556,4.40266 3.47865,4.40266 3.47865,11.57737 0,7.17471 -3.47865,11.57737 -3.45147,4.40266 -8.99556,4.40266 -3.34277,0 -5.76151,-1.30449 -2.39157,-1.33167 -3.96783,-4.04936 z m 17.01275,-10.62618 q 0,-5.51691 -2.28286,-8.64226 -2.25568,-3.15252 -6.22351,-3.15252 -3.96784,0 -6.2507,3.15252 -2.25568,3.12535 -2.25568,8.64226 0,5.51692 2.25568,8.66944 2.28286,3.12535 6.2507,3.12535 3.96783,0 6.22351,-3.12535 2.28286,-3.15252 2.28286,-8.66944 z"
         style=""
         id="path4168" />
      <path
         d="m 314.09651,944.40983 q -4.02218,0 -6.3594,3.15252 -2.33721,3.12535 -2.33721,8.58791 0,5.46256 2.31003,8.61509 2.33722,3.12534 6.38658,3.12534 3.99501,0 6.33223,-3.15252 2.33721,-3.15252 2.33721,-8.58791 0,-5.40821 -2.33721,-8.56073 -2.33722,-3.1797 -6.33223,-3.1797 z m 0,-4.2396 q 6.52246,0 10.2457,4.2396 3.72324,4.2396 3.72324,11.74043 0,7.47366 -3.72324,11.74043 -3.72324,4.2396 -10.2457,4.2396 -6.54964,0 -10.27288,-4.2396 -3.69606,-4.26677 -3.69606,-11.74043 0,-7.50083 3.69606,-11.74043 3.72324,-4.2396 10.27288,-4.2396 z"
         style=""
         id="path4170" />
      <path
         d="m 350.16029,956.04155 q -6.06045,0 -8.39767,1.38603 -2.33721,1.38602 -2.33721,4.72878 0,2.66334 1.73932,4.2396 1.7665,1.54909 4.78314,1.54909 4.15807,0 6.65835,-2.93511 2.52745,-2.96229 2.52745,-7.85413 l 0,-1.11426 -4.97338,0 z m 9.97394,-2.06544 0,17.36605 -5.00056,0 0,-4.62007 q -1.71214,2.77204 -4.26678,4.10371 -2.55463,1.30449 -6.25069,1.30449 -4.67443,0 -7.44648,-2.60898 -2.74487,-2.63616 -2.74487,-7.03882 0,-5.13644 3.4243,-7.74543 3.45147,-2.60898 10.27287,-2.60898 l 7.01165,0 0,-0.48919 q 0,-3.45147 -2.28286,-5.32668 -2.25568,-1.90238 -6.3594,-1.90238 -2.60899,0 -5.08209,0.62507 -2.4731,0.62507 -4.75596,1.87521 l 0,-4.62008 q 2.74487,-1.0599 5.32668,-1.57626 2.58181,-0.54354 5.02773,-0.54354 6.60399,0 9.86522,3.42429 3.26124,3.42429 3.26124,10.38159 z"
         style=""
         id="path4172" />
      <path
         d="m 370.46146,929.05487 5.00055,0 0,42.28729 -5.00055,0 0,-42.28729 z"
         style=""
         id="path4174" />
      <path
         d="m 399.73102,956.04155 q -6.06046,0 -8.39767,1.38603 -2.33722,1.38602 -2.33722,4.72878 0,2.66334 1.73933,4.2396 1.7665,1.54909 4.78314,1.54909 4.15806,0 6.65834,-2.93511 2.52746,-2.96229 2.52746,-7.85413 l 0,-1.11426 -4.97338,0 z m 9.97393,-2.06544 0,17.36605 -5.00055,0 0,-4.62007 q -1.71215,2.77204 -4.26678,4.10371 -2.55463,1.30449 -6.25069,1.30449 -4.67444,0 -7.44648,-2.60898 -2.74487,-2.63616 -2.74487,-7.03882 0,-5.13644 3.42429,-7.74543 3.45147,-2.60898 10.27288,-2.60898 l 7.01165,0 0,-0.48919 q 0,-3.45147 -2.28287,-5.32668 -2.25568,-1.90238 -6.3594,-1.90238 -2.60898,0 -5.08208,0.62507 -2.4731,0.62507 -4.75596,1.87521 l 0,-4.62008 q 2.74487,-1.0599 5.32667,-1.57626 2.58181,-0.54354 5.02774,-0.54354 6.60399,0 9.86522,3.42429 3.26123,3.42429 3.26123,10.38159 z"
         style=""
         id="path4176" />
      <path
         d="m 441.88243,956.15026 q 0,-5.51691 -2.28286,-8.64226 -2.25569,-3.15252 -6.22352,-3.15252 -3.96783,0 -6.25069,3.15252 -2.25569,3.12535 -2.25569,8.64226 0,5.51692 2.25569,8.66944 2.28286,3.12535 6.25069,3.12535 3.96783,0 6.22352,-3.12535 2.28286,-3.15252 2.28286,-8.66944 z m -17.01276,-10.62618 q 1.57626,-2.71769 3.96783,-4.02218 2.41875,-1.33167 5.76151,-1.33167 5.54409,0 8.99556,4.40266 3.47865,4.40266 3.47865,11.57737 0,7.17471 -3.47865,11.57737 -3.45147,4.40266 -8.99556,4.40266 -3.34276,0 -5.76151,-1.30449 -2.39157,-1.33167 -3.96783,-4.04936 l 0,4.56572 -5.02773,0 0,-42.28729 5.02773,0 0,16.46921 z"
         style=""
         id="path4178" />
      <path
         d="m 456.06877,964.43922 5.73433,0 0,6.90294 -5.73433,0 0,-6.90294 z"
         style=""
         id="path4180" />
      <path
         d="m 498.38324,952.97056 0,18.3716 -5.00055,0 0,-18.20854 q 0,-4.32113 -1.68497,-6.46811 -1.68497,-2.14697 -5.05491,-2.14697 -4.04936,0 -6.38657,2.58181 -2.33722,2.5818 -2.33722,7.03882 l 0,17.20299 -5.02773,0 0,-30.43815 5.02773,0 0,4.72878 q 1.79368,-2.74487 4.21242,-4.10371 2.44593,-1.35885 5.62563,-1.35885 5.24514,0 7.93566,3.26123 2.69051,3.23405 2.69051,9.5391 z"
         style=""
         id="path4182" />
      <path
         d="m 534.44704,954.87295 0,2.44592 -22.99168,0 q 0.32612,5.16362 3.09817,7.88131 2.79922,2.69051 7.7726,2.69051 2.88075,0 5.57127,-0.7066 2.71769,-0.7066 5.38103,-2.1198 l 0,4.72879 q -2.69051,1.14143 -5.51691,1.73932 -2.82641,0.59789 -5.73434,0.59789 -7.28341,0 -11.55019,-4.2396 -4.2396,-4.2396 -4.2396,-11.46866 0,-7.47365 4.02218,-11.84914 4.04937,-4.40266 10.89795,-4.40266 6.14199,0 9.70216,3.96783 3.58736,3.94065 3.58736,10.73489 z m -5.00056,-1.46756 q -0.0543,-4.10371 -2.31003,-6.54964 -2.22851,-2.44592 -5.92457,-2.44592 -4.18525,0 -6.7127,2.36439 -2.50028,2.36439 -2.88076,6.65835 l 17.82806,-0.0272 z"
         style=""
         id="path4184" />
      <path
         d="m 547.60066,932.26174 0,8.64227 10.30006,0 0,3.8863 -10.30006,0 0,16.52357 q 0,3.72324 1.00555,4.78314 1.03272,1.0599 4.15807,1.0599 l 5.13644,0 0,4.18524 -5.13644,0 q -5.78869,0 -7.99002,-2.14697 -2.20133,-2.17416 -2.20133,-7.88131 l 0,-16.52357 -3.66888,0 0,-3.8863 3.66888,0 0,-8.64227 5.02773,0 z"
         style=""
         id="path4186" />
      <path
         d="m 565.21131,964.43922 5.73434,0 0,6.90294 -5.73434,0 0,-6.90294 z"
         style=""
         id="path4188" />
      <path
         d="m 604.07432,956.15026 q 0,-5.51691 -2.28286,-8.64226 -2.25568,-3.15252 -6.22352,-3.15252 -3.96783,0 -6.25069,3.15252 -2.25568,3.12535 -2.25568,8.64226 0,5.51692 2.25568,8.66944 2.28286,3.12535 6.25069,3.12535 3.96784,0 6.22352,-3.12535 2.28286,-3.15252 2.28286,-8.66944 z m -17.01275,-10.62618 q 1.57626,-2.71769 3.96783,-4.02218 2.41874,-1.33167 5.76151,-1.33167 5.54409,0 8.99556,4.40266 3.47865,4.40266 3.47865,11.57737 0,7.17471 -3.47865,11.57737 -3.45147,4.40266 -8.99556,4.40266 -3.34277,0 -5.76151,-1.30449 -2.39157,-1.33167 -3.96783,-4.04936 l 0,4.56572 -5.02773,0 0,-42.28729 5.02773,0 0,16.46921 z"
         style=""
         id="path4190" />
      <path
         d="m 635.19189,945.57844 q -0.84249,-0.48919 -1.84804,-0.7066 -0.97836,-0.2446 -2.17415,-0.2446 -4.2396,0 -6.52246,2.77205 -2.25569,2.74487 -2.25569,7.90849 l 0,16.03438 -5.02773,0 0,-30.43815 5.02773,0 0,4.72878 q 1.57627,-2.77205 4.10372,-4.10371 2.52745,-1.35885 6.14198,-1.35885 0.51637,0 1.14144,0.0815 0.62506,0.0543 1.38602,0.19024 l 0.0272,5.13644 z"
         style=""
         id="path4192" />
    </g>
  </g>
</svg>
